<svg xmlns="http://www.w3.org/2000/svg" viewBox="0 0 67.81 102.03"><defs><style>.cls-1{fill:#fff;}</style></defs><g id="Calque_2" data-name="Calque 2"><g id="Fond_Noir_-_White" data-name="Fond Noir - White"><path class="cls-1" d="M6,97.61l-3-3V6L6,3H30.35c10.18,0,18.26,2.58,24,7.67s8.83,12.52,8.83,21.78S60,49.37,53.55,55.29s-14.91,8.83-25.49,8.83H19.38V94.61l-3,3ZM27.26,48.73c6.39,0,11.25-1.41,14.43-4.18s4.63-6.5,4.63-11.61c0-6.24-1.85-14.55-17.77-14.55H19.38V48.73Z"/><path class="cls-1" d="M30.35,6q14.2,0,22,6.92t7.82,19.53q0,12.6-8.68,20.64t-23.45,8H16.38V94.61H6V6H30.35m-14,45.73H27.26q10.74,0,16.4-4.92t5.66-13.87q0-17.55-20.77-17.55H16.38V51.73M30.35,0H6L0,6V94.61l6,6H16.38l6-6V67.12h5.68c11.36,0,20.62-3.24,27.52-9.63s10.61-14.94,10.61-25-3.31-18.24-9.84-24C50,2.84,41.28,0,30.35,0Zm-8,21.39h6.17c13,0,14.77,5.55,14.77,11.55,0,5.58-2,8-3.59,9.34-2.63,2.29-6.83,3.45-12.47,3.45H22.38V21.39Z"/><path class="cls-1" d="M67.81,24.12V7.42l-6-6H51.43l-.16.16A36.19,36.19,0,0,1,67.81,24.12Z"/><path class="cls-1" d="M45.43,66.37V96l6,6H61.81l6-6V41A36.2,36.2,0,0,1,45.43,66.37Z"/></g></g></svg>