<svg xmlns="http://www.w3.org/2000/svg" viewBox="0 0 380.67 83.07"><defs><style>.cls-1{fill:#613616;}.cls-2{fill:#e9640b;}</style></defs><g id="Calque_2" data-name="Calque 2"><g id="Fond_Noir_-_White" data-name="Fond Noir - White"><path class="cls-1" d="M13.53,50.47V78.12H5V5H25.06q11.73,0,18.18,5.72T49.7,26.79a22.17,22.17,0,0,1-7.17,17q-7.17,6.64-19.36,6.64Zm0-37.76v30h9q8.88,0,13.55-4.06T40.72,27.2q0-14.49-17.14-14.49Z"/><path class="cls-1" d="M13.53,83.07H5L0,78.12V5L5,0H25.06c9,0,16.25,2.34,21.47,7,5.39,4.77,8.12,11.45,8.12,19.83s-2.94,15.3-8.75,20.68-13.35,8-22.73,8H18.48v22.7Zm-3.62-39v5.08l2.54-2.54Zm8.57-6.29h4c4.67,0,8.13-1,10.3-2.84,1.27-1.11,3-3.11,3-7.72,0-4.95-1.48-9.54-12.19-9.54h-5.1ZM9.91,9.91v1.46l1.46-1.46Z"/><path class="cls-1" d="M109.71,78.12h-38V5h8.57V70.36h29.39Z"/><path class="cls-1" d="M109.71,83.07h-38l-5-4.95V5l5-4.95h8.57l5,5V65.41h24.43l5,5v7.76Zm-33-9.9h1.46L76.71,71.7Z"/><path class="cls-1" d="M194.31,78.12h-9.49L177,59.33l-15.5-45.5-15.4,43.78-7.3,20.51h-9.54L157.27,5h8.88ZM161.66,13.83h-.21"/><polygon class="cls-1" points="194.31 83.07 184.82 83.07 180.25 80.03 172.26 60.93 161.38 28.97 150.72 59.25 143.42 79.78 138.75 83.07 129.21 83.07 124.58 76.34 152.65 3.18 157.27 0 166.15 0 170.77 3.17 198.94 76.34 194.31 83.07"/><path class="cls-1" d="M272.09,78.12H261.58L223.93,19.8a24.26,24.26,0,0,1-2.35-4.59h-.3a76.22,76.22,0,0,1,.4,10.05V78.12h-8.57V5h11.13l36.63,57.4c1.53,2.38,2.52,4,3,4.9h.2a77.34,77.34,0,0,1-.51-10.76V5h8.57Z"/><path class="cls-1" d="M272.09,83.07H261.58l-4.16-2.26L226.64,33.13v45l-5,4.95h-8.57l-5-4.95V5l5-4.95h11.12l4.18,2.29,30.16,47.25V5L263.52,0h8.57l5,5V78.12Zm-7.81-9.9h2.86V68.56L264,72.21h-.2l-.28-.17ZM218.07,9.91v4.16l3.21-3.81h.3l.29.19-.35-.54Z"/><path class="cls-1" d="M304.83,78.12h-8.57V5h8.57Z"/><polygon class="cls-1" points="304.83 83.07 296.26 83.07 291.31 78.12 291.31 4.95 296.26 0 304.83 0 309.79 4.95 309.79 78.12 304.83 83.07"/><path class="cls-1" d="M375.72,12.71H354.59V78.12H346V12.71H325V5h50.77Z"/><path class="cls-1" d="M354.59,83.07H346l-4.95-4.95V17.66H325L320,12.71V5L325,0h50.77l4.95,5v7.76l-4.95,4.95H359.55V78.12ZM348.18,9.91,350.31,12l2.13-2.13Z"/><polygon class="cls-2" points="161.76 55.74 150.02 81.52 173.5 81.52 161.76 55.74"/><path class="cls-2" d="M173.5,82.37H150l-.77-1.2L161,55.39h1.54l11.74,25.78Zm-22.16-1.7h20.85L161.76,57.79Z"/></g></g></svg>