<svg xmlns="http://www.w3.org/2000/svg" viewBox="0 0 274.27 252.9"><defs><style>.cls-1{fill:#fff;}</style></defs><g id="Calque_2" data-name="Calque 2"><g id="Fond_Noir_-_White" data-name="Fond Noir - White"><path class="cls-1" d="M189.19,117.27A12.76,12.76,0,0,1,202,130v87.83a12.77,12.77,0,0,1-12.77,12.77h-158a12.77,12.77,0,0,1-12.77-12.77V130a12.76,12.76,0,0,1,12.77-12.76H172.29a1.41,1.41,0,0,0,.55-2.72L114.6,89.41c-2.61-1.16-6.74-3.48-6.77-6.38l-1-8h-39V85.58c0,10-7.8,18.58-17.83,18.94A18.52,18.52,0,0,1,30.87,86V75h-14A16.84,16.84,0,0,0,0,91.89V231.2a21.7,21.7,0,0,0,21.7,21.7H198.64a21.7,21.7,0,0,0,21.7-21.7l-.17-133.34a1.36,1.36,0,0,0-2-1.23l-38.06,18.53a1.11,1.11,0,0,0,.49,2.11Z"/><path class="cls-1" d="M234.75,80.23l-.15-15.34a1.25,1.25,0,0,0-1.71-1.16L183.18,83.6a12.58,12.58,0,0,1-9.27,0l-59-23.07a1.26,1.26,0,0,0-1.71,1.19l.2,17.12a6.73,6.73,0,0,0,4,6.11l56.82,24.8a7.59,7.59,0,0,0,6.24-.07l50.33-23.3A6.78,6.78,0,0,0,234.75,80.23Z"/><path class="cls-1" d="M49.38,55.39A12.85,12.85,0,0,0,36.53,68.24v19a12.85,12.85,0,1,0,25.7,0v-19A12.85,12.85,0,0,0,49.38,55.39Z"/><rect class="cls-1" x="143.51" y="132.79" width="43.91" height="38.3" rx="7.53"/><rect class="cls-1" x="36.15" y="132.79" width="43.91" height="38.3" rx="7.53"/><rect class="cls-1" x="89.83" y="132.79" width="43.91" height="38.3" rx="7.53"/><rect class="cls-1" x="36.15" y="176.83" width="43.91" height="38.3" rx="7.53"/><rect class="cls-1" x="89.83" y="176.83" width="43.91" height="38.3" rx="7.53"/><rect class="cls-1" x="143.51" y="176.83" width="43.91" height="38.3" rx="7.53"/><path class="cls-1" d="M273.09,35.62a1.06,1.06,0,0,0-.66-.71L178.63.64c-.31-.11-.63-.21-.95-.3s-.57-.13-.86-.18h0q-.45-.07-.9-.12h-.06q-.36,0-.72,0h-.73a10.68,10.68,0,0,0-3.19.66l-.89.34h0L79.5,35.11a3.34,3.34,0,0,0,0,6.24l92.9,36.1c2.21.83,5.86,1.26,8,.36l57.9-22.33a4.19,4.19,0,0,0-1.5-.73l-51.2-12.9a8.29,8.29,0,0,1-6.26,2.8,7.84,7.84,0,1,1,0-15.66,8.11,8.11,0,0,1,7.87,5.73v0L243.4,48.83a6.72,6.72,0,0,1,4.17,3.09l24.81-9.57C274.78,40.94,274.75,37.37,273.09,35.62Z"/><path class="cls-1" d="M245.54,75,242.31,93.9l-.26,0a2.11,2.11,0,0,0-2.19,1.68l-4.33,21a6.5,6.5,0,0,0,6.37,7.8h4.46a6.5,6.5,0,0,0,6.36-7.8l-3.79-21.06a2.1,2.1,0,0,0-2.31-1.72h0Z"/><path class="cls-1" d="M244.84,78.68h0a4.89,4.89,0,0,0-.54,0h-.06a6.26,6.26,0,0,0-2.67.6l0,0a4.92,4.92,0,0,0-.45.24l-.31.19,0,0a8,8,0,0,0-3.47,6.69c0,4.3,3.16,7.78,7,7.78s7-3.48,7-7.78C251.3,82.35,248.46,79,244.84,78.68Z"/><rect class="cls-1" x="241.27" y="58.11" width="5.85" height="30.67" rx="2.31"/><path d="M247,103.48l2.91,9.71a5.74,5.74,0,0,1-2.59,6.59L245.16,121h0a17.39,17.39,0,0,0,2.56-11.49Z"/></g></g></svg>