<svg xmlns="http://www.w3.org/2000/svg" viewBox="0 0 274.27 252.92"><defs><style>.cls-1{fill:#5a3010;}.cls-2{fill:#ee7023;}.cls-3{fill:#522b14;}.cls-4{fill:#593114;}</style></defs><g id="Calque_2" data-name="Calque 2"><g id="Calque_1-2" data-name="Calque 1"><path class="cls-1" d="M189.19,117.28A12.76,12.76,0,0,1,202,130v87.83a12.77,12.77,0,0,1-12.77,12.77h-158a12.77,12.77,0,0,1-12.77-12.77V130a12.76,12.76,0,0,1,12.77-12.76H172.29a1.41,1.41,0,0,0,.55-2.72L114.6,89.42c-2.61-1.16-6.74-3.48-6.77-6.38l-1-8h-39V85.59c0,10-7.8,18.58-17.83,18.94A18.52,18.52,0,0,1,30.87,86v-11h-14A16.85,16.85,0,0,0,0,91.9V231.21a21.71,21.71,0,0,0,21.7,21.71H198.64a21.71,21.71,0,0,0,21.7-21.71l-.17-133.34a1.37,1.37,0,0,0-2-1.23l-38.06,18.53a1.11,1.11,0,0,0,.49,2.11Z"/><path class="cls-1" d="M234.75,80.24,234.6,64.9a1.25,1.25,0,0,0-1.71-1.16L183.18,83.62a12.63,12.63,0,0,1-9.27,0l-59-23.07a1.26,1.26,0,0,0-1.71,1.19l.2,17.12a6.73,6.73,0,0,0,4,6.11l56.82,24.8a7.59,7.59,0,0,0,6.24-.07l50.33-23.3A6.78,6.78,0,0,0,234.75,80.24Z"/><path class="cls-1" d="M49.38,55.41A12.85,12.85,0,0,0,36.53,68.26v19a12.85,12.85,0,1,0,25.7,0v-19A12.85,12.85,0,0,0,49.38,55.41Z"/><rect class="cls-2" x="143.51" y="132.8" width="43.91" height="38.3" rx="7.53"/><rect class="cls-1" x="36.15" y="132.8" width="43.91" height="38.3" rx="7.53"/><rect class="cls-1" x="89.83" y="132.8" width="43.91" height="38.3" rx="7.53"/><rect class="cls-1" x="36.15" y="176.84" width="43.91" height="38.3" rx="7.53"/><rect class="cls-1" x="89.83" y="176.84" width="43.91" height="38.3" rx="7.53"/><rect class="cls-1" x="143.51" y="176.84" width="43.91" height="38.3" rx="7.53"/><path class="cls-3" d="M271.88,34.82c2.76,1,3.4,5.84.5,7.54L180.46,77.82c-2.18.9-5.83.47-8-.36l-92.9-36.1a3.34,3.34,0,0,1,0-6.24L170.29,1c2.93-1.11,5.39-1.45,8.34-.38Z"/><path class="cls-4" d="M272.43,34.93a1.07,1.07,0,0,1,0,2L180.76,73.8a9,9,0,0,1-6.63.09l-95.31-36a1.21,1.21,0,0,1,0-2.26L171.18.7a10.67,10.67,0,0,1,7.45,0Z"/><path class="cls-2" d="M245.13,72,234.9,119.79a6.49,6.49,0,0,0,6.35,7.86H249a6.5,6.5,0,0,0,6.35-7.86Z"/><path class="cls-2" d="M235.66,124.09l.76,1.14a7,7,0,0,0,5,2.27l7.57.15a6.5,6.5,0,0,0,6.35-7.86L245.13,72l1.13,23.62.87,11.82a26.38,26.38,0,0,1-.85,8.89v0a12.61,12.61,0,0,1-3.86,6.31,14,14,0,0,1-2.18,1.54h0a3.07,3.07,0,0,1-2.14.34Z"/><path class="cls-2" d="M243.4,48.84,187.28,34.7l-1.8,7.12,51.38,12.94A4.2,4.2,0,0,1,240,58.84V92.35h8.3V57.1l0-.18A6.8,6.8,0,0,0,243.4,48.84Z"/><ellipse class="cls-2" cx="244.19" cy="85.47" rx="7.98" ry="8.81"/><circle class="cls-2" cx="244.13" cy="83.74" r="7.09"/><ellipse class="cls-2" cx="179.4" cy="36.83" rx="8.17" ry="7.83"/></g></g></svg>