<svg xmlns="http://www.w3.org/2000/svg" viewBox="0 0 406.77 88.08"><defs><style>.cls-1{fill:none;}.cls-2{fill:#613616;stroke:#613616;}.cls-2,.cls-3,.cls-4{stroke-linecap:square;stroke-linejoin:bevel;}.cls-2,.cls-3{stroke-width:9.91px;}.cls-3{fill:#e9640d;stroke:#e9640d;}.cls-4{fill:#e9640b;stroke:#e9640b;stroke-width:1.69px;}</style></defs><g id="Calque_2" data-name="Calque 2"><g id="Fond_Noir_-_White" data-name="Fond Noir - White"><rect class="cls-1" width="406.77" height="88.08"/><path class="cls-2" d="M25.58,52.59V80.25H17V7.08H37.12q11.73,0,18.18,5.72t6.46,16.12a22.17,22.17,0,0,1-7.17,17q-7.17,6.63-19.36,6.63Zm0-37.75v30h9q8.88,0,13.55-4.06t4.67-11.45q0-14.49-17.14-14.49Z"/><path class="cls-2" d="M121.77,80.25h-38V7.08h8.57V72.49h29.39Z"/><path class="cls-2" d="M206.37,80.25h-9.49L189,61.46,173.51,16l-15.4,43.78-7.3,20.51h-9.54L169.33,7.08h8.88ZM173.72,16h-.21"/><path class="cls-2" d="M284.15,80.25H273.64L236,21.93a24.26,24.26,0,0,1-2.35-4.59h-.3a76.12,76.12,0,0,1,.4,10.05V80.25h-8.57V7.08h11.12l36.64,57.4c1.53,2.38,2.51,4,3,4.9h.2a77.51,77.51,0,0,1-.51-10.77V7.08h8.57Z"/><path class="cls-3" d="M316.89,80.25h-8.57V7.08h8.57Z"/><path class="cls-2" d="M387.78,14.84H366.65V80.25h-8.57V14.84H337V7.08h50.77Z"/><polygon class="cls-4" points="173.82 57.87 162.08 83.64 185.56 83.64 173.82 57.87"/></g></g></svg>