<svg xmlns="http://www.w3.org/2000/svg" version="1.1" xmlns:xlink="http://www.w3.org/1999/xlink" width="1000" height="1000"><metadata><rdf:RDF xmlns:rdf="http://www.w3.org/1999/02/22-rdf-syntax-ns#" xmlns:dc="http://purl.org/dc/elements/1.1/"><rdf:Description><dc:creator>RealFaviconGenerator</dc:creator><dc:source>https://realfavicongenerator.net</dc:source></rdf:Description></rdf:RDF></metadata><g clip-path="url(#SvgjsClipPath1051)"><rect width="1000" height="1000" fill="#ffffff"></rect><g transform="matrix(2.2707776151788868,0,0,2.2707776151788868,50.000000000000085,50.000000000000085)"><svg xmlns="http://www.w3.org/2000/svg" viewBox="0 0 396.34 396.34" width="396.34" height="396.34"><defs><style>.cls-1{fill:#fff;}.cls-2{fill:#613616;}.cls-3{fill:#e9640e;}</style><clipPath id="SvgjsClipPath1051"><rect width="1000" height="1000" x="0" y="0" rx="500" ry="500"></rect></clipPath></defs><g id="Calque_2" data-name="Calque 2"><g id="Fond_Noir_-_White" data-name="Fond Noir - White"><rect class="cls-1" width="396.34" height="396.34"></rect><path class="cls-2" d="M317.1,37.26h0C291.34,14.47,255.53,2.92,210.63,2.92H187.89V84h25.35c48.51,0,56.42,26.81,56.42,53.05,0,19-5.44,32.95-16.64,42.67-11.89,10.33-30.53,15.57-55.39,15.57h-9.74v81.1H201c46.63,0,84.58-13.23,112.78-39.33C342.45,210.55,357,176.2,357,135,357,93.58,343.57,60.7,317.1,37.26Z"></path><polygon class="cls-2" points="87.41 341.95 87.41 373.56 108.19 392.77 151.87 392.77 172.66 373.56 172.66 296.46 87.41 341.95"></polygon><polygon class="cls-2" points="172.66 262.56 172.66 187.62 172.66 99.24 87.41 99.24 87.41 342.95 172.66 297.46 172.66 262.56"></polygon><polygon class="cls-3" points="108.19 2.92 87.41 23.7 87.41 84.01 172.66 84.01 172.66 2.92 108.19 2.92"></polygon></g></g></svg></g></g></svg>